<?xml version="1.0" encoding="utf-8"?>
<!-- Svg Vector Icons : http://www.onlinewebfonts.com/icon -->
<!DOCTYPE svg PUBLIC "-//W3C//DTD SVG 1.1//EN" "http://www.w3.org/Graphics/SVG/1.1/DTD/svg11.dtd">
<svg version="1.1" xmlns="http://www.w3.org/2000/svg" xmlns:xlink="http://www.w3.org/1999/xlink" x="0px" y="0px" viewBox="0 0 1000 1000" enable-background="new 0 0 1000 1000" xml:space="preserve">
<metadata> Svg Vector Icons : http://www.onlinewebfonts.com/icon </metadata>
<g><path d="M906.6,283.8c-2.5-2.2-5.5-3.4-8.8-3.4c-0.4,0-0.8,0-1.3,0L761,293.5c-2,0.1-3.7,0.9-5.2,1.8c-1.6-0.9-3.4-1.7-5.4-1.8l-135.6-13.1c-0.4,0-0.8,0-1.3,0c-3.3,0-6.4,1.2-8.7,3.4c-2.7,2.5-4.3,6-4.3,9.7v125.7c0,3.7,1.6,7.1,4.2,9.5c2.5,2.2,5.6,3.5,8.9,3.5c0.3,0,0.7,0,0.9,0l135.6-9.8c2.1-0.1,3.9-0.9,5.6-1.8c1.7,1,3.5,1.7,5.6,1.8l135.6,9.8c0.3,0,0.7,0,0.9,0c3.3,0,6.5-1.2,8.9-3.5c2.6-2.5,4.2-5.9,4.2-9.5V293.5C911,289.9,909.4,286.3,906.6,283.8z M749.2,409.5l-135.6,9.8V293.5l135.6,13.1V409.5z M897.9,293.5v63.2h-68.7V300L897.9,293.5z M825.5,300.6v56.3h-63.2v-50.3L825.5,300.6z M762.3,360.5h63.2v53.6l-63.2-4.6V360.5z M829.2,414.4v-53.8h68.6v58.8L829.2,414.4z"/><path d="M627.5,350.9c3.3,0,6,3.5,6,7.7c0,4.3-2.7,7.7-6,7.7c-3.3,0-6-3.4-6-7.7C621.4,354.3,624.1,350.9,627.5,350.9z"/><path d="M987.9,118.2c-1.3-1.2-3.1-1.7-4.8-1.7l-482.8,74.6L16.8,116.5c-1.8,0-3.5,0.5-4.8,1.7c-1.2,1.2-2,2.9-2,4.7v502.4c0,2.3,1.3,4.6,3.4,5.7l483.5,251.8c0.9,0.5,2,0.8,3,0.8s2.1-0.3,3-0.8L986.5,631c2.1-1.2,3.5-3.3,3.5-5.7V122.9C989.9,121.1,989.1,119.4,987.9,118.2z M24.9,131.9l466.7,73.6v328.8l-116,20.1L375.2,270c0-3.5-2.6-6.7-6.3-7.1l-154.7-15.6c-2.1-0.3-4.2,0.4-5.8,1.7c-1.6,1.4-2.5,3.3-2.5,5.4v329.4L24.9,615.2L24.9,131.9L24.9,131.9z M239.4,286.8c-1.8,0.3-3.3,1.8-3.3,3.7l-0.4,247.1c0,1.8,1.4,3.4,3.3,3.7l122.2,14.1v1.4l-140.8,24.4V262.5l123.1,11.9L239.4,286.8z M360.7,279.9l0.4,268l-118-13.7l0.4-240.4L360.7,279.9z M94.8,656.5l-52.3-27.2l457.4-79.4l32.4,5.6L99.1,658.8L94.8,656.5z M105,661.8l438.2-104.4l53,9.3L163,692.1L105,661.8z M168.5,694.9l437.3-126.6l54.3,9.4L228.6,726.2L168.5,694.9z M233.8,729l435.1-149.7l64.4,11.2l-437,171L233.8,729z M301.4,764.1l440.2-172.3l68.3,11.9L362.4,795.9L301.4,764.1z M367.3,798.5L817.5,605l61.9,10.7l-448.4,216L367.3,798.5z M499.9,867.4l-64.1-33.3L886.7,617l70.7,12.3L499.9,867.4z M975,615.2l-466.5-81V205.3L975,131.8V615.2z"/><path d="M249.6,418.5c0.2-4.6,2.3-8,4.8-7.7c2.5,0.3,4.3,4.3,4.2,8.8c-0.2,4.6-2.3,8-4.8,7.7c-2.2-0.3-4-3.6-4.2-7.7V418.5z"/></g>
</svg>