<?xml version="1.0" encoding="utf-8"?>
<!-- Svg Vector Icons : http://www.onlinewebfonts.com/icon -->
<!DOCTYPE svg PUBLIC "-//W3C//DTD SVG 1.1//EN" "http://www.w3.org/Graphics/SVG/1.1/DTD/svg11.dtd">
<svg version="1.1" xmlns="http://www.w3.org/2000/svg" xmlns:xlink="http://www.w3.org/1999/xlink" x="0px" y="0px" viewBox="0 0 1000 1000" enable-background="new 0 0 1000 1000" xml:space="preserve">
<metadata> Svg Vector Icons : http://www.onlinewebfonts.com/icon </metadata>
<g><g transform="translate(0.000000,511.000000) scale(0.100000,-0.100000)"><path d="M2773.5,4229.2c-129.8-65.9-179.7-173.7-179.7-387.3v-163.7l-153.7-53.9c-85.8-27.9-217.6-81.9-295.4-117.8l-139.7-65.9l-129.8,123.8c-151.7,143.7-241.5,181.7-365.3,147.7c-61.9-16-155.7-95.8-429.2-359.3c-193.6-187.6-367.3-363.3-387.3-393.2c-43.9-65.9-47.9-223.6-8-299.4c16-29.9,77.9-101.8,137.7-159.7L931,2394.7L855.1,2251c-39.9-79.8-97.8-211.6-127.8-297.4l-53.9-151.7l-185.6-8c-201.6-6-251.5-27.9-337.4-143.7c-39.9-51.9-41.9-85.8-47.9-570.9c-6-483.1-4-521,33.9-594.9c61.9-119.8,123.8-151.7,329.4-163.7l177.7-10l53.9-159.7c29.9-87.8,87.8-231.5,127.8-319.4l73.9-157.7L797.2-424c-55.9-53.9-109.8-119.8-121.8-147.7c-25.9-71.9-22-199.6,10-261.5c16-30,183.7-207.6,375.3-395.2c275.5-273.5,361.3-347.4,429.2-367.3c131.7-39.9,215.6-12,343.3,109.8l109.8,105.8l143.7-71.9l143.7-69.9l135.7,43.9c167.7,51.9,339.4,81.8,487.1,81.8c107.8,0,113.8,4,217.6,107.8c57.9,57.9,97.8,111.8,87.8,117.8c-8,6-73.9,26-145.7,43.9c-157.7,41.9-369.3,29.9-614.8-31.9l-165.7-41.9l-155.7,91.8c-85.8,49.9-163.7,91.8-173.7,91.8s-83.8-67.9-167.7-149.7l-149.7-147.7l-319.4,307.4L947-701.5l161.7,167.7l163.7,165.7l-117.8,219.6C1050.8,47.1,960.9,288.7,897.1,536.2l-22,83.8H637.5H398v439.2v439.2h247.5h247.5l71.9,225.6c39.9,121.8,113.8,299.4,161.7,393.3c49.9,93.8,109.8,207.6,133.8,253.5l43.9,85.8l-179.7,167.7L947,2791.9l319.4,321.4l319.4,321.4l181.7-181.7l181.7-181.7l247.5,123.8c137.7,67.9,347.3,151.7,467.1,187.6l219.6,63.9l6,263.5l6,263.5l453.1-4l453.1-6l10-257.5l10-257.5l189.6-53.9c245.5-71.9,371.3-121.8,576.9-231.6l167.7-91.8l181.7,181.7l181.7,181.7l319.4-319.4l319.4-319.4l-177.7-165.7l-177.6-165.7l121.8-217.6c127.8-229.6,199.6-401.2,273.5-642.8l41.9-141.7l113.8,99.8c61.9,53.9,113.8,115.8,113.8,135.7c0,63.9-103.8,345.3-193.6,525l-87.9,175.7l119.8,129.8c131.8,139.7,151.7,185.6,137.7,317.4c-14,107.8-12,107.8-425.2,511c-271.5,267.5-355.3,337.4-419.2,355.3c-125.8,33.9-217.6-2-359.3-139.7c-67.9-63.9-129.8-117.8-139.7-117.8c-8,0-71.9,25.9-141.7,59.9c-69.9,31.9-197.6,83.8-283.5,113.8l-159.7,53.9l-8,181.7c-10,221.6-45.9,299.4-175.7,365.3c-83.8,41.9-109.8,43.9-578.9,43.9C2883.3,4273.1,2857.3,4271.1,2773.5,4229.2z"/><path d="M7474.6,3324.9c-331.4-71.9-576.9-225.6-792.5-493.1c-201.6-249.5-283.5-511-271.5-874.3l6-231.6L4731.8,61.1L3047-1605.7l-231.6-12c-363.3-20-578.9-107.8-818.4-329.4c-543-503.1-519-1355.4,51.9-1828.5c223.6-185.6,489.1-279.5,794.5-277.5c225.6,0,333.4,23.9,549,127.7c135.7,63.9,199.6,109.8,319.4,231.6c251.5,251.5,359.3,513,359.3,862.4v187.6L5759.8-976.9L7448.7,689.9h283.5c251.5,2,299.4,8,443.1,55.9c429.2,141.7,776.5,513,886.3,944.2c51.9,201.6,51.9,453.1,0,652.8c-69.9,275.5-22,293.4-535-207.6c-249.5-243.5-481.1-455.1-517-469.1c-77.8-33.9-181.6-35.9-259.5-6c-75.9,27.9-323.4,271.5-357.3,351.3c-35.9,81.8-35.9,169.7,0,251.5c14,35.9,223.6,259.5,479.1,513l455.1,449.1l-83.8,35.9C8039.5,3350.9,7712.1,3376.8,7474.6,3324.9z M3013-2326.4c151.7-45.9,305.4-199.6,349.3-357.3c155.7-533-515-924.2-908.3-529c-185.6,183.7-211.6,457.1-63.9,674.7c69.9,105.8,147.7,163.7,271.5,207.6C2789.5-2286.4,2877.3-2286.4,3013-2326.4z"/><path d="M2837.4,2456.6c-223.6-59.9-409.2-167.7-582.9-339.4c-395.2-391.3-493.1-974.1-245.5-1473.2c87.8-177.7,309.4-423.2,473.1-521c445.2-267.5,982.1-255.5,1411.3,27.9c281.5,187.6,481.1,489.1,549,828.4c123.8,618.8-253.5,1249.6-870.4,1459.2C3382.3,2502.5,3035,2510.5,2837.4,2456.6z M3422.3,2167.1c273.5-71.9,525-281.5,646.8-535c283.5-594.9-101.8-1299.5-760.6-1391.4c-501-69.9-978.1,245.5-1103.9,732.6c-135.7,519,183.7,1050,714.6,1193.7C3058.9,2203,3276.5,2203,3422.3,2167.1z"/><path d="M8620.4,590.1c-27.9-16-75.9-63.9-103.8-107.8c-29.9-45.9-61.9-81.8-73.9-81.8c-10,0-73.8,12-143.7,27.9c-183.7,41.9-560.9,75.9-676.7,59.9c-89.8-12-109.8-24-197.6-125.8l-97.8-111.8l143.7-16c521-57.9,786.5-99.8,924.2-143.7c87.9-25.9,163.7-49.9,169.7-49.9s45.9,49.9,87.8,109.8c39.9,59.9,79.8,109.8,87.9,109.8c27.9,0,221.6-141.7,221.6-163.7c0-12-31.9-65.9-71.9-119.8l-69.9-99.8l95.8-111.8c121.8-141.7,203.6-261.5,275.5-403.2c29.9-59.9,55.9-111.8,57.9-113.8c2-2,63.9,8,137.7,22c129.7,25.9,135.7,23.9,143.7-16c35.9-159.7,45.9-221.6,37.9-233.5c-4-8-53.9-20-107.8-28c-55.9-8-111.8-25.9-127.8-39.9c-16-16-29.9-97.8-37.9-203.6c-6-95.8-35.9-259.5-65.9-361.3c-27.9-101.8-49.9-187.7-45.9-191.7c4-2,49.9-33.9,103.8-69.9l93.8-63.9l-79.8-119.8c-89.8-129.7-81.8-127.8-219.6-32l-69.9,47.9L8864-2166.7c-81.9-69.9-227.6-167.7-325.4-219.6l-179.6-91.8l14-89.8c8-49.9,18-101.8,24-115.8c6-18-27.9-33.9-107.8-49.9c-63.9-12-129.7-26-147.7-31.9c-26-8-37.9,16-55.9,107.8l-22,117.8l-185.6,12c-105.8,8-259.5,33.9-363.3,65.9c-97.8,28-193.6,55.9-211.6,61.9c-22,6-47.9-16-79.8-65.9c-26-41.9-53.9-83.8-59.9-93.8c-8-10-67.9,17.9-135.8,63.9l-121.8,83.8l59.9,87.8c31.9,47.9,59.9,91.8,59.9,95.8c0,4-57.9,77.9-127.8,161.7c-69.9,83.8-167.7,231.6-215.6,327.4c-49.9,95.8-97.8,171.7-109.8,169.7c-10-2-63.9-10-119.8-17.9l-99.8-12l-12,75.8c-8,43.9-18,105.8-25.9,139.7l-12,61.9l119.8,24l119.8,23.9l14,143.7c8,79.9,39.9,263.5,71.9,411.2c32,145.7,55.9,269.5,51.9,273.5c-4,4-87.8-57.9-185.6-137.7l-177.7-143.7l-28-153.7l-27.9-151.7l-77.9-10c-101.8-14-171.7-61.9-187.7-127.8c-8-31.9,10-175.7,43.9-351.3c71.9-373.3,91.8-401.3,269.5-389.3l119.8,8l37.9-71.9c20-39.9,71.9-117.8,111.8-171.7l73.9-95.8l-41.9-75.8c-57.9-97.8-57.9-197.6,2-249.5c24-22,147.7-109.8,273.5-193.6c283.5-187.6,337.4-195.6,445.1-69.9l69.9,79.8l167.7-31.9c89.8-18,185.6-37.9,207.6-41.9c32-6,45.9-27.9,55.9-85.8c12-75.8,103.8-181.7,155.7-181.7c49.9,0,568.9,103.8,620.8,123.8c79.9,31.9,117.8,115.8,103.8,231.6c-12,93.8-12,93.8,65.9,137.8c41.9,24,117.8,73.9,167.7,111.8l89.8,67.9l77.8-45.9c81.9-49.9,165.7-59.9,227.6-28c20,10,113.8,131.7,207.6,267.5c219.6,317.4,225.6,397.2,43.9,509l-67.9,41.9l26,105.8c14,55.9,31.9,145.7,39.9,195.6c12,93.8,12,93.8,103.8,107.8c101.8,14,205.6,97.8,205.6,165.7c0,57.9-99.8,545-123.8,608.8c-33.9,89.8-119.8,121.8-251.5,95.8c-61.9-12-111.8-20-113.8-16c-2,2-23.9,39.9-49.9,83.8c-25.9,43.9-71.9,113.8-103.8,153.7l-57.9,73.9l61.9,93.8c67.9,105.8,75.9,177.7,27.9,243.5c-29.9,43.9-377.3,285.5-501.1,349.3C8712.2,626,8688.3,628,8620.4,590.1z"/><path d="M7654.3-332.2c-411.2-147.7-668.7-552.9-608.8-958.2c33.9-227.6,109.8-375.3,277.5-531c407.2-379.3,1058-297.4,1359.4,169.7c197.6,303.4,181.7,718.6-35.9,1004.1c-93.8,125.8-241.6,237.5-383.3,293.4C8109.4-294.2,7794-282.2,7654.3-332.2z M8161.3-637.6c131.7-61.9,227.6-145.7,293.4-263.5c51.9-93.8,57.9-125.8,57.9-275.5c0-153.7-6-179.7-61.9-279.5c-153.7-273.5-501.1-385.3-776.5-251.5c-381.3,187.6-453.1,690.7-137.8,968.2c49.9,43.9,127.8,91.8,173.7,109.8C7833.9-585.7,8055.5-589.7,8161.3-637.6z"/></g></g>
</svg>