<?xml version="1.0" encoding="iso-8859-1"?>
<!-- Uploaded to: SVG Repo, www.svgrepo.com, Generator: SVG Repo Mixer Tools -->
<svg fill="#000000" height="800px" width="800px" version="1.1" id="Layer_1" xmlns="http://www.w3.org/2000/svg" xmlns:xlink="http://www.w3.org/1999/xlink" 
	 viewBox="0 0 511.9 511.9" xml:space="preserve">
<g>
	<g>
		<path d="M490.792,0h-85.3c-4.7,0-8.5,3.8-8.5,8.5V17h-34.1V8.5c0-4.7-3.8-8.5-8.5-8.5h-68.3c-4.7,0-8.5,3.8-8.5,8.5V17h-34.1V8.5
			c0-4.7-3.8-8.5-8.5-8.5h-85.3c-4.7,0-8.5,3.8-8.5,8.5v34.1c0,4.7,3.8,8.5,8.5,8.5h85.3c4.7,0,8.5-3.8,8.5-8.5v-8.5h34.1v8.5
			c0,4.7,3.8,8.5,8.5,8.5h8.5v34.1h-25.6c-4.7,0-8.5,3.8-8.5,8.5V128c0,4.7,3.8,8.5,8.5,8.5h8.5v256h-42.7c-4.7,0-8.5,3.8-8.5,8.5
			v8.5h-8.5c-9.4,0-17.1-7.7-17.1-17.1V187.7c0-23.5-19.1-42.7-42.7-42.7c-23.5,0-42.7,19.1-42.7,42.7v110.9
			c0,14.6-4.2,20.8-8.5,23.5v-6.5c0-4.7-3.8-8.5-8.5-8.5h-42.7c-4.7,0-8.5,3.8-8.5,8.5v8.5h-25.7c-4.7,0-8.5,3.8-8.5,8.5
			s3.8,8.5,8.5,8.5h25.6v8.5c0,4.7,3.8,8.5,8.5,8.5h42.7c4.7,0,8.5-3.8,8.5-8.5V340c16.2-3.8,25.6-18.7,25.6-41.6V187.7
			c0-14.1,11.5-25.6,25.6-25.6c14.1,0,25.6,11.5,25.6,25.6v204.8c0,18.8,15.3,34.1,34.1,34.1h8.5v8.5c0,4.7,3.8,8.5,8.5,8.5h42.7
			v20.7l-55.4,31.7c-3.4,1.9-5,5.9-4,9.6s4.4,6.3,8.2,6.3h187.7c3.9,0,7.3-2.6,8.3-6.3c1-3.7-0.7-7.7-4-9.6l-55.4-31.7V136.5h8.5
			c4.7,0,8.5-3.8,8.5-8.5V93.9c0-4.7-3.8-8.5-8.5-8.5h-25.6V51.2h8.5c4.7,0,8.5-3.8,8.5-8.5v-8.5h34.1v8.5c0,4.7,3.8,8.5,8.5,8.5
			h85.3c4.7,0,8.5-3.8,8.5-8.5V8.5C499.292,3.8,495.492,0,490.792,0z M311.592,51.2h17.1v34.1h-17.1V51.2z M243.292,426.7v-17.1
			h34.1v17.1H243.292z M381.792,494.9h-123.4l29.9-17.1h63.7L381.792,494.9z M362.792,102.4v17.1h-8.5h-68.3h-8.5v-17.1h25.6h34.1
			H362.792z"/>
	</g>
</g>
</svg>